<svg xmlns="http://www.w3.org/2000/svg" width="128" height="128" xml:space="preserve">
  <path fill="#C5C5FF" d="m111.687 89.74-1.299-1.111c-1.537-1.314-15.016-13.1-15.016-21.713 0-9.027 7.318-16.371 16.314-16.371 8.995 0 16.313 7.344 16.313 16.371 0 8.613-13.479 20.398-15.015 21.713l-1.297 1.111zm0-35.2c-6.793 0-12.32 5.552-12.32 12.376 0 5.178 7.967 13.541 12.32 17.525 4.353-3.984 12.319-12.348 12.319-17.525 0-6.825-5.527-12.376-12.319-12.376z"/>
  <path fill="#C5C5FF" d="M111.686 74.135c-3.971 0-7.2-3.238-7.2-7.219 0-3.979 3.229-7.215 7.2-7.215 3.966 0 7.191 3.236 7.191 7.215 0 3.98-3.226 7.219-7.191 7.219zm0-10.44c-1.769 0-3.206 1.444-3.206 3.221s1.438 3.225 3.206 3.225c1.763 0 3.197-1.447 3.197-3.225s-1.435-3.221-3.197-3.221zM34.065 51.728l-1.298-1.111C31.229 49.301 17.751 37.515 17.751 28.9c0-9.026 7.318-16.37 16.314-16.37 8.995 0 16.313 7.344 16.313 16.37 0 8.614-13.478 20.4-15.014 21.716l-1.299 1.112zm0-35.203c-6.793 0-12.32 5.552-12.32 12.375 0 5.18 7.966 13.542 12.32 17.527C38.418 42.443 46.384 34.08 46.384 28.9c0-6.823-5.527-12.375-12.319-12.375z"/>
  <path fill="#C5C5FF" d="M34.064 36.118c-3.97 0-7.199-3.238-7.199-7.219 0-3.979 3.229-7.216 7.199-7.216 3.966 0 7.193 3.237 7.193 7.216 0 3.981-3.227 7.219-7.193 7.219zm0-10.441a3.218 3.218 0 0 0-3.206 3.222c0 1.778 1.438 3.225 3.206 3.225 1.764 0 3.199-1.447 3.199-3.225 0-1.776-1.435-3.222-3.199-3.222z"/>
  <g>
    <path fill="#C5C5FF" d="M35.709 115.469 31 105.139l.465-10.154-4.197-8.479 1.579-5.664-1.032.684-1.045-2.635-2.83-.576-8.318-7.121-1.813-9.729-2.747-5.537-8 5.911L0 54.386l5.953-12.327 13.127-.628.191 3.989-10.754.515-4.144 8.583.437 1.064 7.714-5.699 5.11 10.304 1.656 8.89 5.433 4.65-1.919-4.84 7.871-4.391 7.542-7.931 4.157-5.887 8.555-7.18 2.028-6.47 3.811 1.194-2.377 7.585-9.052 7.598-4.126 5.807-8.06 8.477-5.344 2.98 1.879 4.74.101.021 3.522-2.336 14.557 12.107-9.635 21.744 1.264 7.357-3.788 1.167zm-4.183-29.365 3.975 8.031-.464 10.158 7.955-17.951-9.361-7.785-2.105 7.547z"/>
    <path fill="#C5C5FF" d="m65.27 105.594-3.946-22.069-8.318-1.074-1.251-14.881 10.056.407 5.132-.274 1.027-1.035-4.587-2.228-3.092 2.841-9.516-4.49 5.122-3.986.45-1.818 3.883-8.279 10.293-7.591 1.472 5.755L87.587 39.6l33.286 5.545-.655 3.939-32.066-5.341-18.833 8.784-1.196-4.677-4.707 3.472-3.358 7.16-.571 2.589-1.131.88 1.21.571 3.116-2.862 12.059 5.856-6.049 6.093-6.856.366-5.722-.233.602 7.162 8.024 1.035 2.965 16.586 4.87-5.761.877-9.135 3.286-4.82 1.764-3.11-2.635-5.455 11.384 1.133 1.982 5.478 2.375-4.871 4.991 8.354 4.965 6.23-3.122 2.491-5.203-6.557-1.275-2.135-3.276 6.719-4.337-11.984-1.788-.178.446.926-2.924 5.14-2.756 4.041-.898 9.358zM111.053 113.896l-4.643-7.125-6.995 1.398-.742-8.652 8.301-7.549 11.656 3.146-1.149 8.246-.396 1.992-6.032 8.544zm-2.773-11.57 2.904 4.459 2.147-3.041.22-1.104.638-4.588-6.146-1.658-5.223 4.75.192 2.234 5.268-1.052z"/>
  </g>
</svg>
